<?xml version="1.0" encoding="utf-8"?>
<!-- Generator: Adobe Illustrator 24.0.1, SVG Export Plug-In . SVG Version: 6.00 Build 0)  -->
<svg version="1.1" id="Слой_1" xmlns="http://www.w3.org/2000/svg" xmlns:xlink="http://www.w3.org/1999/xlink" x="0px" y="0px"
	 viewBox="0 0 100 100" style="enable-background:new 0 0 100 100;" xml:space="preserve">
<style type="text/css">
	.st0{fill:none;stroke:#000000;stroke-miterlimit:10;}
</style>
<path d="M48.9,77.8c-0.2-0.8-0.5-1.2-1.2-1.1c-1.5,0.2-2.8,0.6-3.6,1.2c-0.6,0.4-1,0.8-1,1.2c0,0.5,0.6,1.1,1.7,1.6
	c1.3,0.6,3.2,1,5.2,1c2.1,0,3.9-0.4,5.2-1c1-0.5,1.7-1,1.7-1.6c0-0.4-0.4-0.8-1.1-1.2c-0.9-0.5-2.2-1-3.7-1.2
	c-0.5-0.1-1,0.6-1.1,1.2C50.8,79,49.2,78.9,48.9,77.8L48.9,77.8z M50,30.8c2.6,0,5,1.1,6.7,2.8c1.7,1.7,2.8,4.1,2.8,6.7
	s-1.1,5-2.8,6.7c-1.7,1.7-4.1,2.8-6.7,2.8s-5-1.1-6.7-2.8c-1.7-1.7-2.8-4.1-2.8-6.7s1.1-5,2.8-6.7C45,31.8,47.4,30.8,50,30.8z
	 M37.4,57.3c4.6,4.1,9.7,8.6,12.6,17.5c2.9-8.9,8-13.4,12.6-17.5c5.7-5.4,9.4-8.3,9.4-17c0-6.1-2.5-11.5-6.4-15.5
	c-4-4-9.5-6.4-15.5-6.4s-11.5,2.5-15.5,6.4c-4,4-6.4,9.5-6.4,15.5C28.1,49.1,32.4,53,37.4,57.3L37.4,57.3z"/>
<circle class="st0" cx="50" cy="50" r="50"/>
</svg>
