<?xml version="1.0" encoding="utf-8"?>
<!-- Generator: Adobe Illustrator 24.0.1, SVG Export Plug-In . SVG Version: 6.00 Build 0)  -->
<svg version="1.1" id="Слой_1" xmlns="http://www.w3.org/2000/svg" xmlns:xlink="http://www.w3.org/1999/xlink" x="0px" y="0px"
	 viewBox="0 0 100 100" style="enable-background:new 0 0 100 100;" xml:space="preserve">
<style type="text/css">
	.st0{fill:none;stroke:#000000;stroke-miterlimit:10;}
</style>
<g>
	<g>
		<g>
			<path d="M63.8,63.1v-2.2c0-1.2-0.5-2.4-1.3-3.2c2-2.8,2.9-5.9,3.2-8.3c6.1-0.7,5.8-9.8,0-10.5v-2.4c1.7-1,2.5-2.3,2.5-3.7V31
				l2.3-2.3c1.8-1.8,1.7-3.4,1.3-4.4c-1.6-3.8-10.7-6-16.4-6H44.4c-5.7,0-14.8,2.1-16.4,6c-0.4,1-0.5,2.6,1.3,4.4
				c0.5,0.5,1.5,1.5,2.3,2.3l0,0v1.7c0,1.4,0.9,2.7,2.5,3.7v2.5c-5.9,0.7-5.9,9.7,0.1,10.4c0.3,2.4,1.2,5.5,3.2,8.3
				c-0.8,0.9-1.3,2.1-1.3,3.3v2.2c-5,1.3-8.6,5.9-8.6,11.2c0,2.8,0.7,4.1,4.9,5c0.5,0.1,13.1,2.3,17.5,2.3s17-2.2,17.5-2.3
				c4.2-0.9,4.9-2.3,4.9-5C72.4,69.1,68.8,64.5,63.8,63.1z M41,61v6.8c-1.8-1.1-3.5-2.5-3.5-4.2v-2.8c0-0.8,0.3-1.6,0.8-2.2
				C39.1,59.6,40,60.4,41,61z M61.7,58.7c0.5,0.6,0.8,1.4,0.8,2.2v2.8c0,1.6-1.7,3.1-3.5,4.2v-6.8C60,60.4,60.9,59.6,61.7,58.7z
				 M57.6,68.6c-1.3,0.7-2.6,1.1-4.1,1.5v-6.9c1.5-0.3,2.9-0.7,4.1-1.3C57.6,61.9,57.6,68.6,57.6,68.6z M52.1,70.3
				c-1.4,0.2-2.8,0.2-4.1,0v-7c1.5,0.1,2.6,0.2,4.1,0V70.3z M46.5,70.1c-1.3-0.3-2.7-0.7-3.9-1.4c-0.1,0-0.2-0.1-0.2-0.1v-6.8
				c1.3,0.6,2.6,1.1,4.1,1.3C46.5,63.2,46.5,70.1,46.5,70.1z M46.6,25.8h0.7c0.2,0,0.4,0.1,0.5,0.3c0.5,0.8,1.2,1.4,1.7,1.9v-3.2
				c-0.8-0.2-1.4-1-1.4-1.9c0-1.1,0.9-2,2-2c1.1,0,2,0.9,2,2c0,0.9-0.6,1.6-1.4,1.9v3.2c0.5-0.4,1.2-1.1,1.7-1.9
				c0.1-0.2,0.3-0.3,0.5-0.3h0.7c0.7,0,0.7,1.1,0,1.1H53c-1.1,1.6-2.6,2.6-2.7,2.6c-0.2,0.1-0.4,0.1-0.6,0c-0.1,0-1.6-1-2.7-2.6
				h-0.4C45.9,26.9,45.9,25.8,46.6,25.8z M33,32.8v-1.2h34v1.2C67,39.8,33,39.8,33,32.8z M34.9,48c-4.8-0.2-5-7-0.7-7.7v3.4
				c0,0.4,0.3,0.7,0.7,0.7c2.9,0,5.3-2.4,5.3-5.3v-0.5c2.9,0.6,6.4,0.9,9.8,0.9c3.5,0,6.9-0.3,9.8-0.9v0.5c0,2.9,2.4,5.3,5.3,5.3
				c0.4,0,0.7-0.3,0.7-0.7v-3.4c4,0.6,4.2,7.5-0.7,7.7c-0.3,0-0.6,0.3-0.7,0.6c-1.1,8.8-6.6,13.5-14.3,13.5C38,62.1,36,52,35.6,48.6
				C35.5,48.3,35.2,48,34.9,48z"/>
			<circle cx="43.2" cy="42.4" r="2.1"/>
			<circle cx="56.8" cy="42.4" r="2.1"/>
			<path d="M50.9,22.9c0-0.5-0.4-0.9-0.9-0.9c-0.5,0-0.9,0.4-0.9,0.9c0,0.5,0.4,0.9,0.9,0.9C50.5,23.7,50.9,23.3,50.9,22.9z"/>
		</g>
	</g>
	<circle class="st0" cx="50" cy="50" r="50"/>
</g>
</svg>
