<?xml version="1.0" encoding="utf-8"?>
<!-- Generator: Adobe Illustrator 24.0.1, SVG Export Plug-In . SVG Version: 6.00 Build 0)  -->
<svg version="1.1" id="Слой_1" xmlns="http://www.w3.org/2000/svg" xmlns:xlink="http://www.w3.org/1999/xlink" x="0px" y="0px"
	 viewBox="0 0 100 100" style="enable-background:new 0 0 100 100;" xml:space="preserve">
<style type="text/css">
	.st0{fill:none;stroke:#000000;stroke-miterlimit:10;}
</style>
<g>
	<path d="M17.5,62.8c0,0,12.6-4,20.7-9.4c0,0,16.8-11.9,22.6-14c0,0,10.1-4.1,18-3.4c0.1,0,0.2,0.1,0.1,0.2
		c-0.5,1.5-3.3,10.4-3.4,16.6c0,0-2,19.4-1.5,27.3c0,0.8-0.8,1.2-1.4,0.8c-2.6-2-8.4-5.1-18.3-4.1c0,0-17.9,0.9-27.1-3.2l-8.4-3.2
		L17.5,62.8z"/>
	<path d="M80.3,50.2c0,0-2.9,5.4-4.3,8.7c0.3-3.3,0.5-5.8,0.5-5.8c0.2-6,3-14.9,3.4-16.2C80.9,37.7,84.9,42.3,80.3,50.2z"/>
	<path d="M35.4,39.8h-0.5L22.2,50.6l0.4,3.5l-3.8,2.1l0.2,3.9c4.1-1.5,11.1-4.3,16.4-7.7L35.4,39.8z M25.8,52.6
		c0,0.4-0.3,0.8-0.9,0.8h-0.2c-0.4,0-0.9-0.3-0.9-0.8v-1.2c0-0.4,0.3-0.8,0.9-0.8h0.2c0.4,0,0.9,0.3,0.9,0.8V52.6z M29.8,50.4
		c0,0.4-0.3,0.8-0.9,0.8h-0.2c-0.4,0-0.8-0.3-0.8-0.8v-1.2c0-0.4,0.3-0.8,0.8-0.8H29c0.4,0,0.9,0.3,0.9,0.8V50.4z M33.9,48
		c0,0.4-0.3,0.8-0.9,0.8h-0.2c-0.4,0-0.9-0.3-0.9-0.8v-1.2c0-0.4,0.3-0.8,0.9-0.8h0.2c0.4,0,0.9,0.3,0.9,0.8V48z"/>
	<path d="M29.5,31.7l0.1,6.9l7.2-0.3l0.1,13.2c3.4-2.5,16.9-11.8,22.3-13.7c0.5-0.2,6.1-2.4,12.3-3.3l0.3-4.2
		C63.8,28.5,29.5,31.7,29.5,31.7z M37.3,36.2L37.1,33l9.4-0.5l0.2,3.2L37.3,36.2z M54.6,35.3L54.4,32l9.4-0.5l0.2,3.2L54.6,35.3z"/>
	<path d="M28.8,39.4l5.4-0.2l-11.6,10l2.1-19.7c0,0,4.4-6.2,10.2-4.7c0.6,0.2,1.2,0.6,1.3,1.3l1.3,4.1c-4.5,0.3-7.7,0.6-8.1,0.8
		L28.6,31L28.8,39.4z"/>
	<path d="M57,28.7c-4.9,0.2-10.3,0.5-15,0.9v-7.3c0,0,6-5.3,10.7-2.5L57,28.7z"/>
</g>
<circle class="st0" cx="50" cy="50" r="50"/>
</svg>
